<?xml version="1.0" encoding="UTF-8"?> <!-- Generator: Adobe Illustrator 24.0.1, SVG Export Plug-In . SVG Version: 6.00 Build 0) --> <svg xmlns="http://www.w3.org/2000/svg" xmlns:xlink="http://www.w3.org/1999/xlink" id="Layer_1" x="0px" y="0px" viewBox="0 0 314.52 183.61" style="enable-background:new 0 0 314.52 183.61;" xml:space="preserve"> <style type="text/css"> .st0{fill:#00A08E;} .st1{fill:#5BC1A3;} .st2{fill:#FFFFFF;} </style> <g> <g> <path class="st0" d="M238.77,25.37c-3.2-1.16-4.85-4.7-3.68-7.9s4.7-4.85,7.9-3.68c-6.68-2.43-14.06,1.01-16.49,7.69 s1.01,14.06,7.69,16.49l63.23,23.01l-54.43,19.81c-6.68,2.43-14.06-1.01-16.49-7.69c-2.43-6.68,1.01-14.06,7.69-16.49 c-10.16,3.7-15.4,14.93-11.7,25.09s14.93,15.4,25.09,11.7l59.38-21.61c5.97-2.17,9.04-8.77,6.87-14.73 c-1.21-3.32-3.79-5.75-6.87-6.87L238.77,25.37z"></path> <path class="st1" d="M297.41,33.6l-54.43-19.81c-6.68-2.43-14.06,1.01-16.49,7.69s1.01,14.06,7.69,16.49 c-10.16-3.7-15.4-14.93-11.7-25.09s14.93-15.4,25.09-11.7l59.38,21.61c5.97,2.17,9.04,8.77,6.87,14.73 c-1.21,3.32-3.79,5.75-6.87,6.87l-68.18,24.82c-3.2,1.16-4.85,4.7-3.68,7.9s4.7,4.85,7.9,3.68c-6.68,2.43-14.06-1.01-16.49-7.69 c-2.43-6.68,1.01-14.06,7.69-16.49L297.41,33.6"></path> </g> <path class="st2" d="M85.34,94.57H74.96v-4.79h-0.32c-2.47,3.27-6.23,6.07-12.45,6.07c-7.42,0-17.4-5.99-17.4-20.43 c0-12.29,8.46-20.11,18.2-20.11c5.99,0,9.58,2.95,11.65,5.99h0.32v-4.95h10.38V94.57z M65.54,86.51c5.11,0,9.58-4.47,9.58-10.93 c0-6.7-4.15-11.09-9.5-11.09c-6.7,0-9.9,5.51-9.9,11.01C55.73,81.08,58.84,86.51,65.54,86.51z M106.47,78.84L104,81.23v13.33H93.22 V37.1h10.77v32.17l12.13-12.93h13.09l-15.32,15.72l17.64,22.51h-13.01L106.47,78.84z M199.09,65.59c-1.36-0.24-2.95-0.48-5.11-0.48 c-6.38,0-9.58,3.99-9.58,10.85v18.6h-10.77V56.34h10.54v5.91h0.24c2.08-3.75,6.07-7.02,11.17-7.02c1.52,0,2.47,0.08,3.51,0.32 L199.09,65.59L199.09,65.59z M167.9,75.17c0,0.88,0,1.84-0.16,2.87h-28.41c0,5.27,4.47,9.82,9.9,9.82c3.51,0,5.99-1.52,7.66-3.99 l8.89,3.24c-2.99,4.99-8.3,8.82-16.63,8.82c-11.41,0-20.35-8.3-20.35-20.75c0-10.93,7.18-20.11,19.63-20.11 C161.04,55.06,167.9,64.48,167.9,75.17z M139.41,70.7h17.88c-0.48-4.47-3.91-8.14-8.94-8.14C143.08,62.56,139.81,66.47,139.41,70.7 z M0,40.13h18.79c11.25,0,18.84,4.55,18.84,13.73c0,6.07-4.39,10.14-9.74,11.41v0.16c8.3,1.12,12.61,7.02,12.61,13.49 c0,10.06-8.14,15.64-19,15.64H0V40.13z M18.24,48.67h-7.46v13.17h7.86c5.35,0,7.74-2.63,7.74-6.86 C26.38,50.91,23.34,48.67,18.24,48.67z M19.91,70.22h-9.14v15.72h9.62c5.59,0,8.62-2.95,8.62-7.98 C29.01,73.42,25.74,70.22,19.91,70.22z M32.37,139.95H11.41v23.15H0v-54.43h11.41v21.39h20.95v-21.39h11.41v54.43h-11.4V139.95z M86.72,163.1h-10.7v-4.79h-0.24c-3.11,4.55-7.02,6.07-11.17,6.07c-6.23,0-13.89-3.83-13.89-16.84v-22.67H61.5v21.31 c0,5.59,2.63,8.62,6.78,8.62c4.71,0,7.66-3.27,7.66-9.66v-20.27h10.77L86.72,163.1L86.72,163.1z M132.83,161.9 c0,14.21-6.39,21.71-20.51,21.71c-9.27,0-15.84-4.37-18.36-11.72l9.9-3.6c0.8,3.67,3.51,6.54,9.1,6.54c6.46,0,9.82-4.07,9.82-11.49 v-4.87h-0.24c-2.55,3.03-6.31,5.51-12.21,5.51c-9.9,0-18.04-7.74-18.04-20.11c0-11.49,7.9-20.19,18.52-20.19 c6.07,0,9.66,3.11,11.57,5.83h0.4v-4.63h10.06L132.83,161.9L132.83,161.9z M112.96,154.56c5.35,0,9.74-4.39,9.74-10.7 c0-6.54-4.23-10.85-9.66-10.85c-6.47,0-9.82,5.43-9.82,10.77C103.22,149.05,106.25,154.56,112.96,154.56z M140.39,105.63h10.77 v24.02h0.32c2.63-4.23,6.94-5.99,11.25-5.99c8.54,0,14.53,5.67,14.53,17.48v21.95h-10.77v-21.31c0-5.67-2.71-8.62-7.18-8.62 c-4.71,0-8.14,3.27-8.14,9.74v20.19H140.4v-57.46H140.39z M221.3,143.71c0,0.88,0,1.84-0.16,2.87h-28.41c0,5.27,4.47,9.82,9.9,9.82 c3.51,0,5.99-1.52,7.66-3.99l8.89,3.24c-2.99,4.99-8.3,8.82-16.63,8.82c-11.41,0-20.35-8.3-20.35-20.75 c0-10.93,7.18-20.11,19.63-20.11C214.44,123.59,221.3,133.01,221.3,143.71z M192.81,139.24h17.88c-0.48-4.47-3.91-8.14-8.94-8.14 C196.48,131.1,193.2,135.01,192.81,139.24z M243.55,135.17c-0.24-2.71-2-4.31-4.39-4.31c-2.55,0-3.91,1.68-3.91,3.35 c0,2.16,1.2,3.51,7.66,5.75c8.06,2.63,11.01,6.7,11.01,12.21c0,7.02-5.35,12.29-14.77,12.29c-9.74,0-14.37-5.11-14.77-12.53h9.66 c0.24,3.03,1.84,5.19,5.35,5.19c2.71,0,4.39-1.84,4.39-4.07c0-2.63-1.84-4.23-7.58-6.15c-7.18-2.31-10.93-5.91-10.93-11.89 c0-6.86,5.59-11.41,13.81-11.41c8.46,0,13.17,4.87,13.97,11.57L243.55,135.17L243.55,135.17z M257.01,129.9h0.77v-5.6h1.66v-0.7 h-4.08v0.7h1.66L257.01,129.9L257.01,129.9z M266.62,123.59h-0.92l-1.38,4.06c-0.11,0.32-0.27,0.81-0.35,1.16h-0.04 c-0.08-0.34-0.23-0.83-0.34-1.16l-1.37-4.06h-0.93l-0.73,6.31h0.74l0.39-3.78c0.06-0.5,0.1-1.06,0.14-1.57h0.04 c0.13,0.49,0.35,1.1,0.51,1.58l1.23,3.77h0.67l1.23-3.67c0.17-0.51,0.39-1.19,0.54-1.68h0.03c0.04,0.44,0.1,1.17,0.15,1.67 l0.36,3.68h0.75L266.62,123.59z"></path> </g> </svg> 